<?xml version="1.0" encoding="UTF-8" standalone="no"?>
<!DOCTYPE svg PUBLIC "-//W3C//DTD SVG 20010904//EN"
              "http://www.w3.org/TR/2001/REC-SVG-20010904/DTD/svg10.dtd">

<svg xmlns="http://www.w3.org/2000/svg"
     width="3.33333in" height="1.33333in"
     viewBox="0 50 1000 300">
  <path id="Auswahl"
        fill="#ffc600" stroke="black" stroke-width="0"
        d="M 607.00,46.00
           C 607.00,46.00 628.00,46.00 628.00,46.00
             628.00,46.00 628.00,96.00 628.00,96.00
             649.52,78.39 690.11,81.48 700.94,110.00
             705.03,120.78 704.00,130.72 704.00,142.00
             704.00,142.00 704.00,191.00 704.00,191.00
             704.00,191.00 683.00,191.00 683.00,191.00
             683.00,191.00 683.00,136.00 683.00,136.00
             682.96,128.36 681.98,119.99 676.79,114.02
             665.30,100.81 643.32,104.40 633.64,118.00
             629.42,123.92 628.09,133.82 628.00,141.00
             628.00,141.00 628.00,191.00 628.00,191.00
             628.00,191.00 607.00,191.00 607.00,191.00
             607.00,191.00 607.00,46.00 607.00,46.00 Z
           M 24.00,54.00
           C 24.00,54.00 69.00,54.00 69.00,54.00
             84.65,54.00 101.62,54.48 115.00,63.77
             140.61,81.57 140.91,124.83 114.00,141.53
             94.34,153.74 69.25,151.00 47.00,151.00
             47.00,151.00 47.00,191.00 47.00,191.00
             47.00,191.00 24.00,191.00 24.00,191.00
             24.00,191.00 24.00,54.00 24.00,54.00 Z
           M 938.00,65.00
           C 938.00,65.00 960.00,65.00 960.00,65.00
             960.00,65.00 960.00,86.00 960.00,86.00
             960.00,86.00 989.00,86.00 989.00,86.00
             989.00,86.00 989.00,106.00 989.00,106.00
             989.00,106.00 960.00,106.00 960.00,106.00
             960.00,106.00 960.00,156.00 960.00,156.00
             960.01,161.17 959.91,165.84 964.21,169.57
             971.80,176.15 981.39,169.13 988.00,165.00
             990.32,169.07 996.08,178.31 994.39,182.91
             992.83,187.12 986.02,189.75 982.00,190.84
             970.64,193.92 954.85,192.48 946.18,183.82
             940.16,177.80 938.10,169.26 938.00,161.00
             938.00,161.00 938.00,106.00 938.00,106.00
             938.00,106.00 921.00,106.00 921.00,106.00
             921.00,106.00 921.00,86.00 921.00,86.00
             921.00,86.00 938.00,86.00 938.00,86.00
             938.00,86.00 938.00,65.00 938.00,65.00 Z
           M 47.00,130.00
           C 59.92,130.00 86.10,131.81 97.00,126.67
             116.98,117.25 115.49,88.94 100.00,79.48
             88.33,72.36 61.01,74.00 47.00,74.00
             47.00,74.00 47.00,130.00 47.00,130.00 Z
           M 191.00,85.42
           C 208.64,83.29 228.76,91.54 239.22,106.00
             253.79,126.16 252.21,158.86 234.83,176.91
             222.26,189.96 208.07,192.20 191.00,192.00
             149.32,191.51 130.14,143.49 149.34,110.00
             159.03,93.09 172.98,88.04 191.00,85.42 Z
           M 436.00,147.00
           C 437.79,152.11 439.72,156.80 443.33,160.96
             452.43,171.46 469.21,174.60 482.00,169.91
             491.21,166.53 494.56,160.19 498.00,159.34
             501.68,158.42 509.90,167.79 510.67,171.00
             511.58,174.82 504.73,180.37 502.00,182.47
             490.02,191.71 478.30,192.16 464.00,192.00
             435.94,191.67 414.33,168.78 414.00,141.00
             413.85,127.98 416.27,115.49 424.52,105.00
             428.97,99.33 435.52,93.62 442.00,90.37
             460.70,81.03 486.81,84.63 501.91,99.17
             515.79,112.55 517.00,129.11 517.00,147.00
             517.00,147.00 436.00,147.00 436.00,147.00 Z
           M 555.00,96.00
           C 567.15,87.48 577.32,85.32 592.00,85.00
             592.00,85.00 592.00,107.00 592.00,107.00
             584.59,106.96 579.00,106.00 572.00,109.33
             561.11,114.50 558.16,122.96 556.72,134.00
             556.72,134.00 556.00,191.00 556.00,191.00
             556.00,191.00 535.00,191.00 535.00,191.00
             535.00,191.00 535.00,86.00 535.00,86.00
             535.00,86.00 556.00,86.00 556.00,86.00
             556.00,86.00 555.00,96.00 555.00,96.00 Z
           M 770.00,85.42
           C 787.64,83.29 807.76,91.54 818.22,106.00
             832.79,126.16 831.21,158.86 813.83,176.91
             801.26,189.96 787.07,192.20 770.00,192.00
             728.32,191.51 709.14,143.49 728.34,110.00
             738.03,93.09 751.98,88.04 770.00,85.42 Z
           M 840.00,160.00
           C 845.85,161.43 848.66,164.36 854.00,166.88
             861.63,170.49 867.59,171.99 876.00,172.00
             881.68,172.01 887.97,172.22 892.96,169.00
             898.83,165.20 899.83,159.06 893.95,154.65
             889.88,151.60 882.01,150.48 877.00,149.58
             861.07,146.70 839.60,143.45 836.31,124.00
             835.86,121.26 835.89,114.77 836.31,112.00
             837.01,107.19 839.42,101.82 842.53,98.09
             854.97,83.13 881.93,83.48 899.00,88.15
             903.00,89.25 915.22,93.39 916.77,97.21
             918.05,100.37 910.85,111.75 909.00,115.00
             909.00,115.00 894.00,107.93 894.00,107.93
             886.84,105.12 877.50,104.35 870.00,106.02
             862.28,107.72 852.60,115.15 861.11,122.61
             865.33,126.31 872.60,127.73 878.00,128.80
             892.10,131.61 912.03,133.73 918.24,149.00
             919.87,153.02 920.00,155.76 920.00,160.00
             920.00,175.82 911.05,185.70 896.00,189.84
             886.23,192.53 880.87,192.05 871.00,192.00
             854.09,191.92 844.83,186.65 831.00,178.00
             831.00,178.00 840.00,160.00 840.00,160.00 Z
           M 246.00,86.00
           C 246.00,86.00 260.00,86.00 260.00,86.00
             260.00,86.00 267.30,86.99 267.30,86.99
             267.30,86.99 274.66,104.00 274.66,104.00
             274.66,104.00 295.00,159.00 295.00,159.00
             295.00,159.00 316.32,104.00 316.32,104.00
             316.32,104.00 323.70,86.99 323.70,86.99
             323.70,86.99 331.00,86.00 331.00,86.00
             331.00,86.00 341.00,86.00 341.00,86.00
             341.00,86.00 354.58,123.00 354.58,123.00
             354.58,123.00 369.00,160.00 369.00,160.00
             369.00,160.00 375.32,141.00 375.32,141.00
             375.32,141.00 389.58,103.00 389.58,103.00
             389.58,103.00 396.65,86.99 396.65,86.99
             396.65,86.99 404.00,86.00 404.00,86.00
             404.00,86.00 417.00,86.00 417.00,86.00
             417.00,86.00 407.05,114.00 407.05,114.00
             407.05,114.00 387.00,167.00 387.00,167.00
             387.00,167.00 380.95,183.00 380.95,183.00
             380.95,183.00 377.30,190.01 377.30,190.01
             377.30,190.01 372.00,191.00 372.00,191.00
             372.00,191.00 367.00,191.00 367.00,191.00
             367.00,191.00 359.50,189.98 359.50,189.98
             359.50,189.98 352.20,174.00 352.20,174.00
             352.20,174.00 332.00,121.00 332.00,121.00
             332.00,121.00 311.40,173.00 311.40,173.00
             311.40,173.00 303.59,189.98 303.59,189.98
             303.59,189.98 296.00,191.00 296.00,191.00
             296.00,191.00 285.00,191.00 285.00,191.00
             285.00,191.00 272.81,158.00 272.81,158.00
             272.81,158.00 255.58,112.00 255.58,112.00
             255.58,112.00 246.00,86.00 246.00,86.00 Z
           M 194.00,105.30
           C 185.75,106.51 179.35,108.02 173.18,114.18
             158.46,128.90 161.35,156.69 179.00,167.87
             185.07,171.71 193.97,172.67 201.00,171.82
             223.76,169.06 233.09,140.87 223.62,122.00
             218.02,110.82 206.33,104.67 194.00,105.30 Z
           M 495.00,129.00
           C 493.01,122.33 491.18,117.34 485.83,112.47
             474.42,102.09 455.28,102.92 444.30,113.46
             439.39,118.18 437.87,122.74 436.00,129.00
             436.00,129.00 495.00,129.00 495.00,129.00 Z
           M 773.00,105.30
           C 764.75,106.51 758.35,108.02 752.18,114.18
             737.46,128.90 740.35,156.69 758.00,167.87
             764.07,171.71 772.97,172.67 780.00,171.82
             802.76,169.06 812.09,140.87 802.62,122.00
             797.02,110.82 785.33,104.67 773.00,105.30 Z" />
</svg>
